<?xml version="1.0" encoding="UTF-8" standalone="no"?>
<svg width="32" height="32" viewBox="0 0 32 32" fill="none" xmlns="http://www.w3.org/2000/svg">
  <rect width="32" height="32" rx="6" fill="#5D5FEF"/>
  <path d="M24.5 11.5H21L18.5 6.5H13.5L11 11.5H7.5C7.10218 11.5 6.72064 11.658 6.43934 11.9393C6.15804 12.2206 6 12.6022 6 13V23C6 23.3978 6.15804 23.7794 6.43934 24.0607C6.72064 24.342 7.10218 24.5 7.5 24.5H24.5C24.8978 24.5 25.2794 24.342 25.5607 24.0607C25.842 23.7794 26 23.3978 26 23V13C26 12.6022 25.842 12.2206 25.5607 11.9393C25.2794 11.658 24.8978 11.5 24.5 11.5Z" stroke="white" stroke-width="2" stroke-linecap="round" stroke-linejoin="round"/>
  <path d="M12 16.5C12 17.3284 12.6716 18 13.5 18C14.3284 18 15 17.3284 15 16.5C15 15.6716 14.3284 15 13.5 15C12.6716 15 12 15.6716 12 16.5Z" fill="white"/>
  <path d="M17 16.5C17 17.3284 17.6716 18 18.5 18C19.3284 18 20 17.3284 20 16.5C20 15.6716 19.3284 15 18.5 15C17.6716 15 17 15.6716 17 16.5Z" fill="white"/>
  <path d="M13.5 21.5H18.5" stroke="white" stroke-width="2" stroke-linecap="round"/>
</svg>